#!OML:ASF F:\VICON\USERDATA\INSTALL\rory3\rory3.ASF
:FULLY-SPECIFIED
:DEGREES
2001
root 7.24924 17.6796 4.72585 18.2174 -26.8196 12.5154
lowerback 16.8981 0.743706 1.24827
upperback 6.76089 1.29702 7.23892
thorax -2.37878 0.515016 6.77251
lowerneck -9.24092 -10.852 -10.6484
upperneck 26.8384 -15.5537 7.9658
head 11.787 -7.16294 2.56572
rclavicle -7.95139e-014 2.38542e-014
rhumerus 22.3065 -14.7581 -85.4311
rradius 30.1037
rwrist -26.9857
rhand -35.4749 -21.2933
rfingers 7.12502
rthumb -8.60308 -51.098
lclavicle -7.95139e-014 2.38542e-014
lhumerus -13.7782 -45.5781 97.1702
lradius 74.0074
lwrist 46.2615
lhand -21.5219 61.12
lfingers 7.12502
lthumb 4.87041 -451.044
rfemur -50.2346 -8.55027 5.99788
rtibia 35.7976
rfoot -10.8095 -11.5894
rtoes 15.3815
lfemur -22.9543 -7.2625 -20.216
ltibia 12.2326
lfoot -7.85242 -5.83856
ltoes -22.6107
2002
root 7.18282 17.6826 4.72438 18.2586 -26.6445 12.6146
lowerback 16.9828 0.601746 1.20956
upperback 6.72071 1.1137 7.18248
thorax -2.44582 0.426652 6.7694
lowerneck -9.32647 -10.7813 -10.648
upperneck 26.9261 -15.4761 8.03427
head 11.836 -7.11762 2.59863
rclavicle -1.90833e-014 3.65764e-014
rhumerus 23.444 -16.0619 -85.6843
rradius 29.6672
rwrist -25.5895
rhand -36.1476 -21.221
rfingers 7.12502
rthumb -9.25219 -50.998
lclavicle -1.90833e-014 3.65764e-014
lhumerus -12.5707 -45.683 96.6691
lradius 73.8562
lwrist 44.9571
lhand -18.3273 61.2577
lfingers 7.12502
lthumb 7.9544 -451.088
rfemur -50.3443 -8.50189 6.10943
rtibia 36.1027
rfoot -11.0953 -11.7548
rtoes 15.3349
lfemur -23.0297 -7.50433 -20.02
ltibia 12.3368
lfoot -7.75294 -5.74208
ltoes -23.215
2003
root 7.11771 17.6851 4.7286 18.2522 -26.4776 12.7403
lowerback 17.0427 0.452754 1.14371
upperback 6.68151 0.915922 7.1348
thorax -2.49768 0.330633 6.79468
lowerneck -9.40537 -10.6646 -10.6702
upperneck 27.051 -15.3282 8.08246
head 11.8904 -7.04566 2.63995
rclavicle 1.90833e-014 -8.11041e-014
rhumerus 24.4766 -17.1016 -85.8982
rradius 29.1985
rwrist -24.0981
rhand -36.716 -21.247
rfingers 7.12502
rthumb -9.80067 -50.999
lclavicle 1.90833e-014 -8.11041e-014
lhumerus -11.7836 -46.3015 96.3414
lradius 74.2581
lwrist 46.4114
lhand -20.7202 60.9733
lfingers 7.12502
lthumb 5.64449 -450.878
rfemur -50.3669 -8.52481 6.18713
rtibia 36.3812
rfoot -11.4353 -11.7335
rtoes 15.7434
lfemur -23.1105 -7.81834 -19.851
ltibia 12.5319
lfoot -7.70892 -5.60604
ltoes -24.2194
2004
root 7.05207 17.6891 4.73559 18.2624 -26.3175 12.7733
lowerback 17.1236 0.344587 1.17764
upperback 6.59474 0.792052 7.10835
thorax -2.61853 0.273646 6.77184
lowerneck -9.36579 -10.6079 -10.7012
upperneck 27.2394 -15.2796 8.11819
head 11.9573 -7.02204 2.66833
rclavicle -6.36111e-015 -9.38264e-014
rhumerus 25.2026 -17.8814 -85.8364
rradius 28.7407
rwrist -22.8601
rhand -37.1297 -20.9842
rfingers 7.12502
rthumb -10.1998 -50.7169
lclavicle -6.36111e-015 -9.38264e-014
lhumerus -11.1269 -46.689 96.0794
lradius 74.5057
lwrist 46.4713
lhand -20.6677 60.9762
lfingers 7.12502
lthumb 5.69518 -450.88
rfemur -50.3503 -8.55429 6.37098
rtibia 36.6401
rfoot -11.6967 -11.6539
rtoes 15.4536
lfemur -23.1839 -7.99175 -19.6243
ltibia 12.794
lfoot -7.57222 -5.58726
ltoes -24.4941
2005
root 6.98865 17.6915 4.74406 18.4266 -26.1637 12.7149
lowerback 17.0706 0.214454 1.31246
upperback 6.45889 0.653086 7.09764
thorax -2.71899 0.210769 6.70907
lowerneck -9.20464 -10.5696 -10.8521
upperneck 27.4009 -15.2537 8.1928
head 12.007 -7.0208 2.73234
rclavicle -2.54444e-014 -1.11319e-014
rhumerus 25.8907 -18.3537 -85.7926
rradius 28.1411
rwrist -21.8833
rhand -37.7136 -20.5873
rfingers 7.12502
rthumb -10.7631 -50.2916
lclavicle -2.54444e-014 -1.11319e-014
lhumerus -10.5443 -46.5651 95.8407
lradius 74.5974
lwrist 45.3222
lhand -18.1909 61.145
lfingers 7.12502
lthumb 8.0861 -450.97
rfemur -50.4742 -8.58347 6.64697
rtibia 36.9043
rfoot -11.8977 -11.5644
rtoes 15.3361
lfemur -23.3667 -8.16651 -19.2847
ltibia 13.0314
lfoot -7.32968 -5.52463
ltoes -24.0212
2006
root 6.92698 17.6907 4.75187 18.6681 -26.0556 12.703
lowerback 16.8172 0.0692655 1.37444
upperback 6.37567 0.46675 7.04644
thorax -2.65343 0.121617 6.64875
lowerneck -9.23722 -10.5026 -10.8707
upperneck 27.5995 -15.1714 8.17349
head 12.0825 -6.98517 2.74046
rclavicle 6.04305e-014 -8.11041e-014
rhumerus 26.7285 -18.7448 -86.0547
rradius 27.5263
rwrist -21.0502
rhand -38.3906 -20.4526
rfingers 7.12502
rthumb -11.416 -50.1218
lclavicle 6.04305e-014 -8.11041e-014
lhumerus -9.98111 -46.2945 95.52
lradius 74.6905
lwrist 44.3509
lhand -16.2829 61.2084
lfingers 7.12502
lthumb 9.92722 -450.954
rfemur -50.7448 -8.65672 6.91348
rtibia 37.1537
rfoot -12.0031 -11.4955
rtoes 15.2014
lfemur -23.6772 -8.46265 -18.9397
ltibia 13.2719
lfoot -7.10632 -5.33351
ltoes -23.8234
2007
root 6.86383 17.6863 4.76054 18.7457 -26.0324 12.7321
lowerback 16.68 -0.00253405 1.32079
upperback 6.32667 0.361083 7.00043
thorax -2.62221 0.0705601 6.64721
lowerneck -9.1649 -10.4173 -10.7345
upperneck 27.7066 -15.0569 8.03669
head 12.0711 -6.93841 2.69241
rclavicle 3.18055e-014 2.06736e-014
rhumerus 27.2448 -18.9597 -86.1147
rradius 27.1336
rwrist -20.5367
rhand -38.987 -20.4522
rfingers 7.12502
rthumb -11.9911 -50.0887
lclavicle 3.18055e-014 2.06736e-014
lhumerus -9.60922 -46.2937 95.3112
lradius 74.8879
lwrist 44.2467
lhand -15.7094 61.3266
lfingers 7.12502
lthumb 10.4805 -451.045
rfemur -50.8697 -8.7139 7.15759
rtibia 37.3589
rfoot -12.1009 -11.3959
rtoes 15.011
lfemur -23.846 -8.60742 -18.6922
ltibia 13.5886
lfoot -7.03559 -5.31798
ltoes -23.8786
